<mxfile host="app.diagrams.net" agent="Mozilla/5.0 (Windows NT 10.0; Win64; x64; rv:129.0) Gecko/20100101 Firefox/129.0" version="24.7.7">
  <diagram name="Seite-1" id="lB3IvihuRim_9Eb4sw82">
    <mxGraphModel dx="794" dy="1555" grid="1" gridSize="10" guides="1" tooltips="1" connect="1" arrows="1" fold="1" page="1" pageScale="1" pageWidth="827" pageHeight="1169" math="0" shadow="0">
      <root>
        <mxCell id="0" />
        <mxCell id="1" parent="0" />
        <mxCell id="h9kGt1D0OUggEjxRW-uX-1" value="" style="shape=image;imageAspect=0;aspect=fixed;verticalLabelPosition=bottom;verticalAlign=top;image=data:image/png,iVBORw0KGgoAAAANSUhEUgAAAlwAAAJICAYAAAC0Wzo9AAAAOXRFWHRTb2Z0d2FyZQBNYXRwbG90bGliIHZlcnNpb24zLjUuMSwgaHR0cHM6Ly9tYXRwbG90bGliLm9yZy/YYfK9AAAACXBIWXMAAAsTAAALEwEAmpwYAABuvUlEQVR4nO3deXhMZ+PG8W+IkIQgtSRoK62trbbaRCzdo8rgbRsUFUurdkGronSv7vLyKkFRW4IGIV1N1b4WtbZorYlXiD1EMmSd3x9+5pXagjk5We7PdfXqmXFmzt1pOr3znOc8x8Vut9spYBISEmjSpAlLly6lWrVqZscRERERua5iZgcQERERKexUuEREREQMpsIlIiIiYjAVLhERERGDqXCJiIiIGEyFS0RERMRgKlwiIiIiBlPhEhERETGYCpeIiIiIwVS4RERERAymwiUiIiJiMBUuEREREYOpcImIiIgYTIVLRERExGAqXCIiIiIGU+ESERERMZgKl4iIiIjBVLhEREREDKbCJSIiImIwFS4RERERg6lwiYiIiBhMhUtERETylNVqJSgoCD8/P4KCgrBarWZHMpwKl4iIiOQZq9VKaGgoiYmJeHt7k5iYSGhoaKEvXSpcIiIikmfCw8Nxc3PD09MTFxcXPD09cXNzIzw83OxohlLhEhERkTwTFxeHh4dHjuc8PDyIj483J1AeUeESERGRPOPn54fNZsvxnM1mo3r16uYEyiMqXCIiIpJnwsLCSE9PJzU1FbvdTmpqKunp6YSFhZkdzVAqXCIiIpJnLBYLERER+Pr6kpSUhK+vLxEREVgsFrOjGcrV7AAiIiJStFgslkJfsP5JI1wiIiIiBlPhEhERETGYCpeIiIiIwVS4RERERAymwiUiIiJiMBUuEREREYOpcImIiIgYTIVLRERExGAqXCIiIiIGU+ESERERMZgKl4iIiIjBVLhEREREDKbCJSIiImIwFS4RERERg6lwiYiIiBhMhUtERETEYLkuXGlpaTRp0oTatWuzYcOGWz5gZmYmrVu3pnbt2gQFBd3y+4iIiIgUFLkuXJ9++ikJCQm3fcCIiAh27tx52+8jIiIiUlDkqnCNGzeOOXPm3PbBtm/fzqRJk277fUREREQKEtfr/WFGRgZffvklUVFRt32g8+fPM2TIELKysm77vUREREQKkmsWrsOHD/Pmm2+ydetWpxzoiy++ID4+nhIlSpCRkeGU9xQREREpCK44pZiSksKoUaOwWCyOslWhQgXq1q17ywdZuXIl0dHRAPTv3/+W30dERESkILqicMXExDBx4kTS0tIAaNCgAfPmzaNmzZq3dICkpCTeeecdAOrVq0f37t1vI66IiIhIwXPNU4oVK1Zk4MCBtG3bFhcXl1s+wAcffMCJEydwd3fniy++oHjx4rf8XiIiIiIF0RWFy8fHh2HDhtGuXTs8PDxu682/++47Fi1aBMDgwYPx8/O7rfcTERERKYiuOKXYvHlzXnnlldsuW0eOHOGTTz4BoFGjRoSEhNzW+4mIiNwKq9VKUFAQfn5+BAUFYbVazY4kRZAht/ax2+0MHTqUc+fOUbp0aT777LPbOi0pIiJyK6xWK6GhoSQmJuLt7U1iYiKhoaEqXZLnrrsO162aPn264/Y/7777LlWqVLnl90pOTiY5OTnHc0ePHr2tfCIiUjSEh4fj5uaGp6cngOPv4eHhWCwWM6NJEeP0wrV3717+85//ANCkSROCg4Nv6/1mzJhBRESEM6KJiEgRExcXh7e3d47nPDw8iI+PNyeQFFlOLVwZGRkMGTKEtLQ0ypcvz8cff3zb79m1a9crStvRo0c1J0xERG7Iz8+PxMREx8gWgM1mo3r16uaFkiLJqYVr7Nix7Nq1C4CPPvqIO+6447bf08vLCy8vr9t+HxERKXrCwsIIDQ0FLo5s2Ww20tPTCQsLMzmZFDVOK1z79+/nm2++AS4uLZGQkMCUKVOu+5qUlJQc+7Rv357SpUs7K5KIiBRxFouFiIgIwsPDiY+Pp3r16oSFhWn+luQ5pxWukydPOm5MffToUUaMGHHD15w9ezbHfs2aNVPhEhERp7JYLCpYYjpDloUQERERkf9x2ghXgwYN2L17d672rV27NgBVq1Zl2bJlzoogIiIiki9phEtERETEYCpcIiIiIgZT4RIRERExmAqXiIiIiMFUuERERKRIOnXqFAMGDGDChAmGH8vFbrfbDT+KkyUkJNCkSROWLl1KtWrVzI4jIiIiBczWrVsJDg7m4MGD+Pj4cOTIEVxcXAw7nka4REREpEiJioqicePGHDx4EA8PD8aPH29o2QIVLhERESkiMjIyGDhwIF26dOHChQvcc889/PbbbwQHBxt+bKfevFpEREQkPzp27Bjt2rVj1apVwMVbPs2aNYvy5cvnyfE1wiUiIiKF2oYNG/D393eUrXfeeYcff/wxz8oWaIRLRERECrHJkycTGhpKeno6ZcqUYcaMGXlyCvGfVLhERESk0ElLS6N///5MnjwZuHgf5++++446deqYkkeFS0RERAqVw4cP06ZNGzZs2ADAiy++yIwZM/Dy8jItk+ZwiYiISKGxevVq/P392bBhAy4uLnz88cfMnz/f1LIFGuESERGRQsButxMREcGgQYPIzMykXLlyzJo1ixYtWpgdDVDhEhERkQLu/Pnz9O7dm8jISADq1q1LbGwsNWrUMDnZ/6hwiYiISIF18OBBWrduzZYtWwBo164dU6ZMoXTp0iYny0lzuERERKRAWrp0Kf7+/mzZsoVixYoRHh5OdHR0vitboBEuERERKWDsdjsjR47krbfeIjs7mzvuuIPo6GieffZZs6NdkwqXiIiIFBipqam89tprzJkzB4BHHnmEBQsWUL16dXOD3YBOKYqIiEiBsH//fho1auQoW126dGHt2rX5vmyBCpeIiIgUAFarlYCAAP78809cXV0ZO3Ys06dPx93d3exouaLCJSIiIvlWdnY2n3zyCS1btuTMmTNUrlyZZcuWERoaiouLy229t9VqJSgoCD8/P4KCgrBarU5KfSUVLhEREcmXkpOTad26Ne+99x52u52GDRuyefNmnnjiidt+b6vVSmhoKImJiXh7e5OYmEhoaKhhpUuFS0RERPKdv/76i8DAQL7//nsAevXqxYoVK6hatapT3j88PBw3Nzc8PT1xcXHB09MTNzc3wsPDnfL+/6TCJSIiIvlKbGwsgYGB7N69Gzc3NyZPnszXX39NyZIlnXaMuLg4PDw8cjzn4eFBfHy8045xORUuERERyReysrJ45513aN26NSkpKVStWpVVq1bRvXt3px/Lz88Pm82W4zmbzWbYFY8qXCIiImK606dP06pVKz777DMAnnzySTZv3kyDBg0MOV5YWBjp6emkpqZit9tJTU0lPT2dsLAwQ46nwiUiIiKm+uOPP6hfvz6//PILAAMHDmTJkiVUrlzZsGNaLBYiIiLw9fUlKSkJX19fIiIisFgshhxPK82LiIiIaaKjo3nttdew2WyUKlWKyZMn06lTpzw5tsViMaxg/ZMKl4iIiOS5zMxM3nrrLUaNGgXA3XffTWxsLI888ojJyYyhwiUiIiJ56sSJE3To0IFly5YB8OyzzxIdHc0dd9xhcjLjaA6XiIiI5JnNmzfj7+/vKFtvvfUWv/zyS6EuW6ARLhEREckj06dPp3fv3qSlpeHp6cm0adN46aWXzI6VJ1S4RERExFDp6em88cYbjB8/HoAaNWoQGxtL3bp1TU6Wd1S4RERExDCJiYm89NJLrF27FoCWLVsyc+ZMypUrZ26wPKY5XCIiImKI3377DX9/f0fZ+uCDD/jhhx+KXNkCjXCJiIiIk9ntdiZOnMiAAQPIyMjAy8uLqKgonn/+ebOjmUaFS0RERJzmwoUL9OvXj6lTpwJw3333ERsbS+3atU1OZi4VLhEREXGKQ4cO0aZNG37//XcAWrduzfTp0ylTpozJycynOVwiIiJy21asWIG/vz+///47Li4ufP7558TExKhs/T+NcImIiMgts9vtfPXVVwwePJisrCzKly9PdHQ0zz33nNnR8hUVLhEREbklNpuNHj16MHv2bAAefvhhYmNj8fPzMzlZ/qNTiiIiInLT4uLiaNy4saNshYSEsG7dOpWta1DhEhERkZvy66+/4u/vz/bt2ylevDj/+c9/iIqKwsPDw+xo+ZYKl4iIiOSK3W7niy++wGKxkJSURMWKFVmyZAmvv/46Li4uZsfL1zSHS0RERG7o3LlzvPrqq8yfPx+AgIAAFixYwJ133mlysoIh14UrLS2NFi1akJCQQGRkJA0aNLjha06ePMmcOXNYu3YtBw4cICUlBQ8PD6pVq0bDhg3p2LEj1apVu61/ABERETHWnj17CA4OZteuXQB069aNcePGUapUKZOTFRy5LlyffvopCQkJuX7j2NhYhg8fjs1my/H82bNnOXv2LDt37mTGjBm8+eabdOvWLfeJRUREJM/8+OOPdOrUieTkZEqUKMGYMWPo1auXTiHepFwVrnHjxjFnzpxcv2lsbCxDhw51PL777rt58sknqVixIqdPn2bVqlUcOHCAzMxMvvzySzIyMujVq9fNpxcRERFDZGdnM3z4cD766CMAfH19mT9/Po0aNTI5WcF03cKVkZHBl19+SVRUVK7f8MSJEwwfPtzxeMCAAfTu3ZvixYs7nhs6dChTpkwhPDwcgK+++oqgoCBq1qx5s/lFRETEyc6cOUPnzp356aefAHjssceYN28evr6+JicruK55leLhw4fp3LnzTZUtgOjoaMdpxBdeeIF+/frlKFsALi4udO/enZdffhmArKysmz6OiIiION/OnTsJDAx0lK2+ffuybNkyla3bdEXhSklJYdSoUVgsFrZu3QpAhQoVqFu3bq7ecPny5Y7tV1999br7du7c2bG9fv36XL2/iIiIGGPevHk0aNCAvXv3UrJkSaZNm8a4ceNwc3MzO1qBd0XhiomJYeLEiaSlpQHQoEED5s2bl6vTfdnZ2ezbtw+AEiVKUKdOnevuf/mlpCdOnLip4CIiIuIcWVlZvPXWW7Rr147U1FTuvPNO1qxZwyuvvGJ2tELjmnO4KlasyMCBA2nbtm2ur0QoVqwYK1eu5NixYyQlJd3wdcePH3dsa3VaERGRvHfq1Ck6dOjAkiVLAHj66aeZO3cuFStWNDlZ4XLFCJePjw/Dhg3j119/5aWXXrrpyz7Lly9PnTp1cnUVw6V/uQD33nvvTR1HRESkoLBarQQFBeHn50dQUBBWq9XsSABs3boVf39/x/+PBw0axOLFi1W2DHDFCFfz5s3z5MDJycl88803jsdNmzbNk+OKiIjkJavVSmhoKG5ubnh7e5OYmEhoaCgRERFYLBbTckVFRdGzZ08uXLiAu7s7U6ZMcVzMJs5nyq197HY77777rmPeVqVKlWjbtu1V901OTiY5OTnHc0ePHjU8o4iIiDOEh4fj5uaGp6cngOPv4eHhphSujIwMBg8ezJgxYwC45557iI2N5aGHHsrzLEWJKYVrxIgRLFq0yPH4gw8+wN3d/ar7zpgxg4iIiLyKJiIi4lRxcXF4e3vneM7Dw4P4+Pg8z3Ls2DHatWvHqlWrAGjWrBmzZ8++Ip84X54XrhEjRjB16lTH4169evHss89ec/+uXbsSHByc47mjR48SEhJiWEYRERFn8fPzIzEx0TGyBWCz2ahevXqe5ti4cSOtW7fm8OHDALz99tsMHz78irUyxRh5VriysrL48MMPmTt3ruO5tm3b8sYbb1z3dV5eXnh5eRkdT0RExBBhYWGEhoYCF0e2bDYb6enphIWF5VmGKVOm0LdvX9LT0yldujSRkZFXDGaIsa650rwzpaSk0Lt37xxlq3379nzyySe6+aWIiBRqFouFiIgIfH19SUpKwtfXN88mzKelpdG7d2+6d+9Oeno6tWvXZuPGjSpbJjB8hCsxMZFevXqxe/dux3M9evRg8ODBRh9aREQkX7BYLHk+Qf7IkSO0adPGcSeX559/nsjISMqWLZunOeQiQ0e4du/eTbt27Rxlq1ixYrz77rsqWyIiIgZas2YNjz76KOvXr8fFxYXhw4cTGxursmUiw0a4du7cyauvvsrZs2cBKFWqFOHh4Tz33HNGHVJERKRIs9vtjB8/ntdff53MzEzKli3L7NmzadGihdnRijxDCldcXBzdunVzlK2yZcsyYcIE/P39jTiciIhIkXf+/Hn69OnDjBkzAKhbty6xsbHUqFHD5GQCBhSutLQ0BgwYwJkzZwDw9vZm+vTp1K5d29mHEhEREeDgwYO0bt2aLVu2ANCuXTumTJlC6dKlTU4mlzh9DldERAR79uwBwNXVlbFjx6psiYiIGGTZsmUEBASwZcsWihUrxogRI4iOjlbZymecOsKVlJTEzJkzHY9r167N9u3b2b59e65e/9prrzkzjoiISKFlt9sZOXIkb731FtnZ2dxxxx1ER0dfdzFxMY9TC9eiRYuw2WyOxzt37mTnzp25fr0Kl4iIyI2lpqby2muvMWfOHAAeeeQRFixYkOer10vuOfWU4qVTiSIiImKM/fv306hRI0fZ6tKlC2vXrlXZyudc7Ha73ewQNyshIYEmTZqwdOlSqlWrZnYcERGRPGG1WunYsSNnzpzB1dWVUaNGERoaqru2FAB5cmsfERERuXXZ2dl88skntGzZkjNnzlC5cmWWLVtG//79VbYKiDy7ebWIiIjcvOTkZLp27cp3330HQMOGDYmJiaFq1armBpObohEuERGRfOrvv/8mMDDQUbZ69erFihUrVLYKIBUuERGRfOi7774jMDCQ3bt34+bmxuTJk/n6668pWbKk2dHkFqhwiYiI5CNZWVm8++67BAcHc+7cOapWrcqqVavo3r272dHkNmgOl4iISD6RlJRESEgIVqsVgCeeeIJ58+ZRuXJlk5PJ7dIIl4iISD7wxx9/EBAQ4ChbAwYMYOnSpSpbhYQKl4iIiMmio6Np1KgRBw4coFSpUkRGRvLVV19RokQJs6OJk6hwiYiImCQzM5PBgwfz8ssvY7PZuPvuu1m7di2dO3c2O5o4meZwiYiImODEiRN06NCBZcuWAfDss88SHR3NHXfcYXIyMYJGuERERPLY5s2bCQgIcJStt956i19++UVlqxDTCJeIiEgemj59Or179yYtLQ1PT0+mTZvGSy+9ZHYsMZgKl4iISB5IT09n0KBBjBs3DoAaNWoQGxtL3bp1TU4meUGFS0RExGCJiYm89NJLrF27FoCWLVsyc+ZMypUrZ24wyTOawyUiImKg3377DX9/f0fZ+uCDD/jhhx9UtooYjXCJiIgYwG63M3HiRAYMGEBGRgZeXl5ERUXx/PPPmx1NTKARLpGbZLVaCQoKws/Pj6CgIMeq0CIil1y4cIHu3bvTp08fMjIyuO+++9i4caPKVhGmwiVyE6xWK6GhoSQmJuLt7U1iYiKhoaEqXSLicOjQIZ588kmmTp0KQOvWrdmwYQO1a9c2OZmYSYVL5CaEh4fj5uaGp6cnLi4ueHp64ubmRnh4uNnRRCQfWLFiBf7+/vz++++4uLjw+eefExMTQ5kyZcyOJiZT4RK5CXFxcXh4eOR4zsPDg/j4eHMCiUi+YLfbGT16NM8++ywnTpygfPnyWK1Whg4diouLi9nxJB9Q4RK5CX5+fthsthzP2Ww2qlevbk4gETGdzWajU6dOvPHGG2RlZfHQQw+xadMmmjVrZnY0yUdUuERuQlhYGOnp6aSmpmK320lNTSU9PZ2wsDCzo4mICeLi4njssceYPXs2AC+//DLr1q3jnnvuMTmZ5DcqXCI3wWKxEBERga+vL0lJSfj6+hIREYHFYjE7mojksV9//ZWAgAC2bdtG8eLFGTVqFLNmzcLT09PsaJIPaR0ukZtksVhUsESKMLvdzpdffsk777xDdnY2FSpUYO7cuTzzzDNmR5N8TIVLREQkl86dO8err77K/PnzAQgICGD+/PncddddJieT/E6nFEVERHJhz549NGzY0FG2Xn31VVavXq2yJbmiwiUiInIDP/74I/Xr12fXrl2UKFGC8ePHM2XKFEqVKmV2NCkgVLhERESuITs7mw8//JDnn3+e5ORkfHx8WL58OX369NH6WnJTNIdLRETkKs6ePUunTp346aefAGjcuDExMTH4+vqanEwKIo1wiYiI/MPOnTupX7++o2z17duX5cuXq2zJLVPhEhERuUxMTAwNGjRg7969lCxZkqlTpzJu3Djc3NzMjiYFmAqXiIgIkJWVxdChQ3nppZdITU3lzjvvZM2aNbz66qtmR5NCQHO4RESkyDt16hQvv/wyixcvBuDpp59m7ty5VKxY0eRkUlhohEtERIq0bdu2ERAQ4ChbgwYNYvHixSpb4lQqXCIiUmTNmjWLxo0bEx8fj7u7O7NmzWLkyJG4uuoEkDiXfqJERKTIycjIICwsjK+++goAPz8/YmNjefjhh01OJoWVCpeIiBQpx44do3379qxcuRKAZs2aMXv2bLy9vU1OJoWZTimKiEiRsXHjRvz9/R1l6+233+bnn39W2RLDaYRLRESKhKlTp9KnTx/S09MpXbo0M2bMoHXr1mbHkiJChUtERAq1tLQ0Bg4cyMSJEwGoVasWsbGx3H///SYnk6Ik14UrLS2NFi1akJCQQGRkJA0aNLjha9LT04mJicFqtbJ7925sNhsVKlSgTp06tG7dmueee+62wouIiFzPkSNHaNOmDevXrwfg+eefJzIykrJly5qcTIqaXBeuTz/9lISEhFy/8ZEjR+jVqxd79uzJ8XxiYiKJiYksX76cJ598kpEjR+Ll5ZX7xCIiIrmwZs0a2rZty7Fjx3BxceGjjz7inXfeoVgxTV+WvJerwjVu3DjmzJmT6zdNSUnh1VdfJT4+HoAKFSrQrFkzKlSowIEDB1i8eDEXLlxg1apVDBw4kMmTJ2vNExERcQq73c748eN5/fXXyczMpGzZssyePZsWLVqYHU2KsOu2nIyMDL788kuioqJu6k1HjRrlKFuBgYGMGzcuxyhWXFwcPXr04NChQ6xbt465c+fSsWPHm08vIiJymfPnz9OnTx9mzJgBQN26dYmNjaVGjRomJ5Oi7prjqocPH6Zz5843XbZOnjzJ3LlzAfDw8OCrr7664pShn58f48ePdwzrTpgwgczMzJvNLiIi4nDw4EEef/xxR9lq164dv/32m8qW5AtXFK6UlBRGjRqFxWJh69atwMVTgnXr1s3VG/70009kZGQA0LZt22uubVKrVi2aNm0KwPHjxx0TGkVERG7WsmXLCAgIYMuWLRQrVozw8HCio6MpXbq02dFEgKsUrpiYGCZOnEhaWhoADRo0YN68edSsWTNXb7hmzRrH9pNPPnndfZ966inH9pIlS3L1/iIiIpfY7XZGjhxJ06ZNOXnyJHfccQeLFi1i8ODBuLi4mB1PxOGac7gqVqzIwIEDadu27U390O7atcuxfaN7Ul3+53/88UeujyEiIpKamkr37t2Jjo4G4JFHHmHBggVUr17d3GAiV3FF4fLx8WHYsGG0a9cODw+Pm3qzlJQUTp06BUDZsmVvuNyDr6+vY/vgwYM3dSwRESm69u/fT3BwMH/++ScAnTt3ZuLEibi7u5ucTOTqrjil2Lx5c1555ZWbLltwcS7WJZUrV77h/p6ennh6egIXy9ql05giIgWR1WolKCgIPz8/goKCsFqtZkcqlKxWKwEBAfz555+4uroyZswYZsyYobIl+ZpTV39LSUlxbOf2B79UqVJXfb2ISEFitVoJDQ0lMTERb29vEhMTCQ0NVelyouzsbD799FNatmzJmTNnqFSpEsuWLaN///6aryX5nlNXG01PT3dslyxZMlevubxwXf76S5KTk0lOTs7x3NGjR28xoYiIMcLDw3Fzc3OM2l/6e3h4OBaLxcxohUJycjJdu3blu+++Ay5e0DV//nyqVq1qbjCRXHJq4bqV3zDsdrtj+2q3W5gxYwYRERG3lUtExGhxcXFXLIPj4eHhWARabt3ff/9NcHAwf//9NwA9evRg7Nixuf7FXiQ/cGrhuvQbHVx9tOpqLp+3VaJEiSv+vGvXrgQHB+d47ujRo4SEhNxiShER5/Pz8yMxMTHH96DNZtMVc7fpu+++o0uXLpw7dw43NzciIiLo0aOH2bFEbpphhev8+fO5es2FCxcc21dboM7Ly0s3txaRfC8sLIzQ0FDg4siWzWYjPT2dsLAwk5MVTFlZWXz44Yd88sknAFStWpX58+fToEEDk5OJ3BqnTpqvUKGC47Ti5VcsXktqaiqpqakAlCtXDjc3N2fGERHJMxaLhYiICHx9fUlKSsLX15eIiAjN37oFSUlJ/Otf/3KUrSeeeILNmzerbEmB5tQRLnd3d6pWrUpCQgJJSUnYbLbrLi9x5MgRx7aG3UWkoLNYLCpYt+nPP/8kODiY/fv3A9C/f39Gjhx51SknIgWJU0e44OI9Ei+50erx27Ztc2zff//9zo4iIiIFSHR0NA0bNmT//v2UKlWKqKgoxowZo7IlhYLTC9fTTz/t2F65cuV19121apVj+7HHHnN2FBERKQAyMzMZPHgwL7/8Mjabjbvvvpu1a9fSqVMns6OJOI3TC1fTpk0dv43MmTPnmnO5/v77b8cNq729vW94o2sRESl8Tpw4QbNmzRg5ciQAzz77LJs3b+bRRx81OZmIczm9cHl7ezuWbEhNTaV3795XlK64uDj69etHdnY2AD179tSEeRGRImbz5s0EBASwbNkyAIYMGYLVauWOO+4wOZmI8zl10vwl/fv3Z/ny5Rw8eJCdO3fSsmVLLBYLvr6+xMXFsWjRIsdyEPXr16dz585GxBARkXxq+vTp9O7dm7S0NDw9PZk6dSrt2rUzO5aIYQwpXKVLlyYyMpKePXuye/dukpOTmTNnzhX7NWzYkIiICFxdDYkhIiL5THp6OoMGDWLcuHEA1KhRg9jYWOrWrWtyMhFjGdZ0fHx8WLBgAfPnz2fhwoXs2bOH5ORkypQpwwMPPEBwcDAtW7bUDUdFRIqIo0eP0rZtW9auXQtAixYtmDVrFuXKlTM3mEgecLFffjPDAiIhIYEmTZqwdOlSqlWrZnYcERG5gd9++402bdqQmJgIwHvvvceHH3541XvoihRGOpcnIiKGsdvtTJo0if79+5ORkUGZMmWIiorihRdeMDuaSJ5S4RIREUNcuHCB/v3788033wBQp04dvvvuO2rXrm1yMpG8p8IlIiJOd+jQIdq2bcvGjRsBaN26NdOnT6dMmTImJxMxh06ei4iIU61cuRJ/f382btyIi4sLn376KTExMSpbUqRphEtERJzCbrczduxYBg0aRFZWFuXLl2f27Nk0b97c7GgiplPhEhGR22az2ejVqxczZ84E4KGHHiI2NpZ77rnH5GQi+YMKl4iI3Jb4+HiCg4PZtm0bAC+//DKTJ0/G09PT3GAi+YjmcImIyC1bvHgx/v7+bNu2jeLFizNy5EhmzZqlsiXyDypcIiJy0+x2O19++SXNmzfn9OnTVKhQgcWLFzNo0CDdQUTkKnRKUUREbkpKSgqvvvoqMTExAAQEBDB//nzuuusuk5OJ5F8a4RIRkVzbu3cvDRo0cJStV199ldWrV6tsidyACpeIiOTKTz/9REBAALt27aJEiRKMHz+eKVOmUKpUKbOjieR7KlwiInJd2dnZfPTRR/zrX/8iOTkZHx8fVqxYQZ8+fTRfSySXNIdLRESu6ezZs3Tu3Jkff/wRgMaNGxMTE4Ovr6/JyUQKFo1wiYjIVe3atYv69es7ylbfvn1Zvny5ypbILVDhEhGRK8TExBAYGMjevXspWbIkU6dOZdy4cbi5uZkdTaRAUuESERGHrKwshg0bxksvvURqaip33nkna9as4dVXXzU7mkiBpsIlIiIAnD59mhYtWvDFF18A8PTTT7Np0yYCAgJMTibOYrVaCQoKws/Pj6CgIKxWq9mRigwVLhERYdu2bfj7+/Prr78CMGjQIBYvXkylSpVMTibOYrVaCQ0NJTExEW9vbxITEwkNDVXpyiMqXCIiRdysWbNo3Lgx8fHxuLu7M2vWLEaOHImrqy5kL0zCw8Nxc3PD09MTFxcXPD09cXNzIzw83OxoRYIKl4hIEZWRkcEbb7xBp06dOH/+PH5+fvz222907NjR7GhigLi4ODw8PHI85+HhQXx8vDmBihgVLhGRIuj48eM0bdqU0aNHA9CsWTM2bdrEww8/bG4wMYyfnx82my3HczabjerVq5sTqIhR4RIRKWI2btyIv78/K1euBODtt9/m559/xtvb2+RkYqSwsDDS09NJTU3FbreTmppKeno6YWFhZkcrElS4RESKkClTpvDEE0+QkJBA6dKlmT9/Pp9++inFixc3O5oYzGKxEBERga+vL0lJSfj6+hIREYHFYjE7WpGgGZEiIkVAWloaAwcOZOLEiQDUqlWL2NhY7r//fpOTSV6yWCwqWCZR4RIRKeSOHDlCmzZtWL9+PQDPP/88kZGRlC1b1uRkIkWHTimKiBRia9aswd/fn/Xr1+Pi4sLw4cOJjY1V2RLJYxrhEhEphOx2O+PHj+f1118nMzOTsmXLMmvWLFq2bGl2NJEiSYVLRKSQOX/+PH369GHGjBkA1K1bl9jYWGrUqGFyMpGiS4VLRKQQOXjwIK1bt2bLli0AvPTSS0ydOpXSpUubnEykaNMcLhGRQmLZsmUEBASwZcsWihUrxogRI5gzZ47Klkg+oBEuEZECzm63M2rUKIYMGUJ2djbe3t7MmTOHZ5991uxoIvL/VLhERAqw1NRUunfvTnR0NACPPPIICxYs0O1aRPIZnVIUESmg9u/fT6NGjRxlq3Pnzqxdu1ZlSyQfUuESESmAfvnlFwICAvjzzz9xdXVlzJgxzJgxA3d3d7OjichVqHCJiBQg2dnZfPrpp7Ro0YIzZ85QqVIlli5dSv/+/XFxcTE7nohcg+ZwiYgUEMnJyXTt2pXvvvsOgAYNGhATE0O1atXMDSYiN6QRLhGRAuDvv/+mQYMGjrLVo0cPVq5cqbIlUkCocImI5HPff/89gYGB/P3337i5uTFp0iQmTZpEyZIlzY4mIrmkwiUikk9lZWXx7rvv8uKLL3Lu3DmqVKnCypUr6dGjh9nRROQmaQ6XiEg+lJSUREhICFarFYAnnniCuXPn4uPjY3IyEbkVhheuv//+m9mzZ7NhwwaOHz9OZmYmFSpU4MEHH+SFF14gKChIV9aIiFzmzz//JDg4mP379wPQv39/Ro4cSYkSJUxOJiK3yrDCdelWE5MnT8Zut+f4syNHjnDkyBEWLVpE48aNGTlyJN7e3kZFEREpMObMmUO3bt2w2WyUKlWKiRMn0qVLF7NjichtMqxwjR49mkmTJjkeP/LII9SrV4+SJUuye/duVqxYgd1uZ926dY7bUri5uRkVR0QkX8vMzGTYsGH8+9//BuDuu+9mwYIFPProoyYnExFnMKRw7d+/n8mTJwPg5uZGeHg4zZs3z7HPn3/+SZ8+fThx4gQ7d+4kMjKS7t27GxFHRCRfO3nyJB06dGDp0qUANGnShOjoaCpUqGByMhFxFkOuUvzhhx/IysoCoFu3bleULYAHH3yQDz/80PH4p59+MiKKiEi+tmXLFgICAhxlKywsjF9++UVlS6SQMWSEa9++fY7t+vXrX3O/xx9/3LH93//+14goIiL5VlRUFD179uTChQt4eHgwdepU2rdvb3YsETGAIYWrePHiju1jx45dc7+kpCTHdvny5Y2IIiKS72RkZDBo0CAiIiIAuPfee4mNjeXBBx80OZmIGMWQU4r33nuvYzsyMpILFy5cdb/LJ9VfPtolIlJYHT16lCZNmjjKVosWLfj9999VtkQKOUMKV7t27Rzrxfz999+0bduWJUuWcOLECVJSUti2bRv9+vVj9uzZAFStWpV+/foZEUVEJN9Yv349/v7+rF69GoD33nuPH3/8USP8IkWAi/2fi2Q5idVqZfDgwWRmZl774C4uPPfcc7zzzjtUrlw51++dkJBAkyZNWLp0qW7cKiIFwqRJkwgNDSUjI4MyZcoQGRnJiy++aMixrFYr4eHhxMXF4efnR1hYGBaLxZBjiUjuGHYvRYvFwvz582nQoME196lUqRKNGjXS1TgiUmilpaXRo0cPevXqRUZGBnXq1GHjxo2Glq3Q0FASExPx9vYmMTGR0NBQxy2CRMQcho1wHTt2jBEjRrBo0SIyMjJo2LAhjz76KK6uruzdu5fly5c75nY98sgjjB8//qqrzScnJ5OcnJzjuaNHjxISEqIRLhHJ1xISEmjTpg0bN24EIDg4mOnTp+Pl5WXYMYOCgkhMTMTT09PxXGpqKr6+vixbtsyw44rI9RlylWJ8fDwhISGcPHmScuXKMWbMmCtGuo4cOcKAAQP4888/2bp1KwMGDCAqKuqK+yrOmDHDMblURKSgWLVqFS+99BLHjx/HxcWFTz75hKFDh1KsmGEnFgCIi4u74pdXDw8P4uPjDT2uiFyf00e47HY7bdq0YefOncDFdWYCAwOvuu/Zs2d58cUXOXLkCACjRo2iZcuWOfbRCJeIFCR2u52xY8fy5ptvkpmZSfny5Zk9e/ZVF4A2gka4RPInp/+qtWHDBkfZeuKJJ65ZtgDKli1Lnz59HI+///77K/bx8vKiWrVqOf7y8fFxdmwRkdtms9no0qULAwcOJDMzk4ceeohNmzblWdmCiyvVp6enk5qait1uJzU1lfT0dMLCwvIsg4hcyemF69JcBYDGjRvfcP8nnnjCsb1r1y5nxxERyRPx8fE89thjzJw5E4AOHTqwbt067rnnnjzNYbFYiIiIwNfXl6SkJHx9fYmIiNBViiImc/ocrhMnTji2czMx9PIrFM+dO+fsOCIihlu8eDEdOnTg9OnTFC9enPDwcF5//fUr5qTmFYvFooIlks84fYSrVKlSju3jx4/fcP8zZ844tsuWLevsOCIihrHb7Xz55Zc0b96c06dPU6FCBRYvXswbb7xhWtkSkfzJ6YWrevXqju1Lqylfz2+//ebYrlOnjrPjiIgYIiUlhXbt2jF06FCys7MJCAhg8+bNPPPMM2ZHE5F8yOmF6+mnn3bcvHrLli2sXLnymvueP3+er7/+2vG4WbNmzo4jIuJ0e/fupWHDhsTExADwyiuvsHr1au666y6Tk4lIfuX0wlW1alVat27teDx48OCrlq7Tp0/Tr18/9u/fD8A999zDCy+84Ow4IiJO9dNPP1G/fn127txJiRIlGD9+PFOnTs0xnUJE5J8MWfh02LBh7Nixg7/++ovk5GR69uzJQw89RP369SlTpgzx8fEsWbKElJQUAMqUKcPYsWNxdTUkjojIbcvOzuaTTz7hgw8+AMDHx4eYmBgee+wxk5OJSEFgSMPx9PQkMjKSoUOHsnTpUgD++OMP/vjjjyv2veeeexg7diw1atQwIoqIyG07e/YsXbp04YcffgAuLnkzb948qlSpYnIyESkoDBtS8vLyYvz48WzatInY2Fg2b97MsWPHyMjIwNvbmwceeIBmzZrRqlUrjWyJSL61a9cugoOD2bNnDwC9e/fmq6++ws3NzeRkIlKQGN50AgICCAgIMPowIiJON3/+fF555RVSUlIoWbIk48ePp1u3bmbHEpECyNi7qIqIFEBZWVkMGzaMtm3bkpKSQrVq1Vi9erXKlojcMp3LExG5zOnTp3n55Zf59ddfgYtL3cyZM4dKlSqZnExECjKNcImI/L/t27cTEBDgKFtvvPEGixcvVtkSkdumwiUiAsyaNYtGjRoRFxeHu7s7s2bNYtSoUbqoR0ScQt8kIlKkZWRkMGTIEEaPHg2An58fsbGxPPzww+YGE5FCRYVLRIqs48eP065dO8fdMJo1a8bs2bPx9vY2OZmIFDY6pSgiRdLGjRvx9/d3lK1hw4bx888/q2yJiCE0wiUiRc6UKVPo27cv6enplC5dmhkzZuS4B6yIiLOpcIlIkZGens7AgQP5+uuvAahVqxaxsbHcf//9JicTkcJOhUtEioQjR47Qtm1bfvvtNwCef/55IiMjKVu2rMnJRKQo0BwuESn01qxZg7+/P7/99hsuLi589NFHxMbGqmyJSJ7RCJeIFFp2u50JEyYwcOBAMjMzKVu2LLNmzaJly5ZmRxORIkaFS0QKpQsXLtCnTx+mT58OwAMPPEBsbCw1a9Y0N5iIFEkqXCJS6Pz3v/+ldevWbN68GYC2bdsybdo0SpcubXIyESmqNIdLRAqVZcuW4e/vz+bNmylWrBhffPEFc+fOVdkSEVNphEtECgW73c5//vMfwsLCyM7Oxtvbm+joaJo2bWp2NBERFS4RKfhSU1Pp3r070dHRANSrV48FCxbg5+dncjIRkYt0SlGkgLJarQQFBeHn50dQUBBWq9XsSKbYv38/jRs3dpStTp06sXbtWpUtEclXVLhECiCr1UpoaCiJiYl4e3uTmJhIaGhokStdv/zyCwEBAfzxxx8UL16c0aNHExkZiYeHh9nRRERyUOESKYDCw8Nxc3PD09MTFxcXPD09cXNzIzw83OxoecJut/PZZ5/RokULzpw5Q6VKlVi6dCkDBw7ExcXF7HgiIlfQHC6RAiguLg5vb+8cz3l4eBAfH29OoDx07tw5unbtSmxsLACBgYHMnz+fatWqmZxMROTaNMIlUgD5+flhs9lyPGez2ahevbo5gfLI7t27CQwMdJSt7t27s2rVKpUtEcn3VLhECqCwsDDS09NJTU3FbreTmppKeno6YWFhZkczzPfff0/9+vX5+++/KVGiBBMnTmTy5MmULFnS7GgiIjekwiVSAFksFiIiIvD19SUpKQlfX18iIiKwWCxmR3O67Oxs3n//fV588UXOnTtHlSpVWLVqFT179jQ7mohIrmkOl0gBZbFYCmXBulxSUhKdOnVi4cKFADzxxBPMnTsXHx8fk5OJiNwcjXCJSL60Y8cO6tev7yhb/fv3Z+nSpSpbIlIgqXCJSL4zd+5cGjRowP79+ylVqhQzZsxgzJgxlChRwuxoIiK3RIVLRPKNzMxMhgwZQvv27bHZbNx1112sXbuWLl26mB1NROS2aA6XiOQLJ0+epEOHDixduhSAJk2aEB0dTYUKFUxOJiJy+zTCJSKm27JlCwEBAY6yFRYWxi+//KKyJSKFhka4RMRUkZGR9OrViwsXLuDh4cHUqVNp37692bFERJxKhUtETJGRkcGgQYOIiIgA4N577yU2NpYHH3zQ5GQiIs6nwiUiee7o0aO0a9eO1atXA9CiRQtmzpxJ+fLlTU4mImIMzeESkTy1fv16/P39HWXrvffe48cff1TZEpFCTSNcIpJnJk2aRGhoKBkZGZQpU4bIyEhefPFFs2OJiBhOhUtEDJeWlkZoaCjffPMNAHXq1CE2NpY6deqYnExEJG+ocImIoRISEmjTpg0bN24EIDg4mOnTp+Pl5WVyMhGRvKM5XCJimFWrVuHv78/GjRtxcXHh008/JSYmRmVLRIocjXCJiNPZ7XbGjh3Lm2++SWZmJuXLl2f27Nk0b97c7GgiIqZQ4RIRp7LZbPTq1YuZM2cC8OCDDxIbG8u9995rcjIREfOocImI08THxxMcHMy2bdsA6NChA9988w2enp7mBhMRMZnhhSs7O5uFCxeycOFCdu3axalTp3Bzc+Puu+/mqaeeIiQkRPdLEykEFi9eTIcOHTh9+jTFixdnxIgRvPHGG7i4uJgdTUTEdIYWrkOHDvH666+zY8eOHM+np6ezc+dOdu7cyaxZswgPD+epp54yMoqIGMRutxMeHs6wYcPIzs6mQoUKzJ07l2eeecbsaCIi+YZhhevw4cN06tSJo0ePAlC2bFmee+45qlatyokTJ/j11185ceIEZ8+eJTQ0lNmzZ+seaiIFTEpKCt26dWPevHkA+Pv7s2DBAu666y6Tk4mI5C+GFa7333/fUbaefvppRo4cSenSpR1/HhYWxqBBg1i2bBnp6el88sknzJkzx6g4IuJke/fuJTg4mJ07dwLwyiuvMH78eNzd3U1OJiKS/xiyDteSJUtYs2YNAPXr12fcuHE5yhaAu7s7X375JWXLlgVg27ZtHDhwwIg4IuJkP//8M/Xr12fnzp24uroybtw4pk6dqrIlInINhhSu+fPnA+Dq6sr777+Pq+vVB9K8vLxo06YNtWvXpkGDBpw6dcqIOCLiJNnZ2QwfPpxWrVpx9uxZfHx8WLFiBX379tXkeBGR63D6KcVz586xevVqAB5//HFq1ap13f3feustZ0cQEQOcPXuWLl268MMPPwDQqFEjYmJiqFKlisnJRETyP6ePcO3YsYOMjAzg4heyiBR8u3btIjAw0FG2evfuzYoVK1S2RERyyekjXHv27HFsX1pZ+uDBg8yZM4eVK1dy5MgRXF1d8fPzo3nz5nTs2JFSpUo5O4aIOMmCBQvo2rUrKSkplCxZkvHjx9OtWzezY4mIFChOH+GKi4tzbFesWJGZM2fyr3/9iylTprBv3z5sNhvJycls376dL7/8kpYtW7J3715nxxCR25SVlcWwYcNo06YNKSkpVKtWjdWrV6tsSa5ZrVaCgoLw8/MjKCgIq9VqdiQR0xgyh+uS77//nqlTpwJQq1YtHn/8cby8vDhw4ABLlizBZrORkJBAp06diImJ4c4773R2HBG5BadPn+bll1/m119/BS4u7TJnzhwqVapkcjIpKKxWK6Ghobi5ueHt7U1iYiKhoaFERERgsVjMjieS55xeuFJTUx3bU6dOpVixYgwbNozOnTvnuIrp2LFj9OnTh507d3LmzBmGDBnCt99+e8X7JScnk5ycnOO5S+t7iYjzbd++neDgYMdo9RtvvMGIESOuebWxyNWEh4fj5ubmuI/mpb+Hh4ercEmR5PRv0AsXLuR43K9fP7p06XLFfpUrV2bixIm0atWKM2fOsGXLFtavX0/Dhg1z7DdjxgwiIiKcHVNErmL27Nl0796d8+fP4+7uzjfffEPHjh3NjiUFUFxcHN7e3jme8/DwID4+3pxAIiZz+hwuNzc3x3a5cuXo3r37NfetWLEi7du3dzxeunTpFft07dqVpUuX5vhr1qxZzg0tUsRlZGTwxhtvEBISwvnz5/Hz82PdunUqW3LL/Pz8sNlsOZ6z2WxUr17dnEAiJnN64bo0bAwQEBBwwysQL1864q+//rriz728vKhWrVqOv3x8fJwXWKSIO378OE2bNmX06NEANG3alN9//5169eqZmksKtrCwMNLT00lNTcVut5Oamkp6ejphYWFmRxMxhdMLV7ly5RzbuZlgW7lyZcf2mTNnnB1HRK7j999/x9/fn5UrVwIwdOhQrFYrd9xxh8nJpKCzWCxERETg6+tLUlISvr6+mjAvRZrT53DVqFHDsf3Pye5Xk5WV5di+fHRMRIw1depU+vbtS1paGp6ensyYMYM2bdqYHUsKEYvFooIl8v+cXrhq167t2L58EdRrSUhIcGzrVKGI8dLT03n99deZMGECADVr1iQ2NpYHHnjA5GQiIoWX008pPvzww5QvXx64WLj27dt33f1XrVrl2K5fv76z44jIZRITE3nmmWccZatVq1Zs3LhRZUtExGBOL1wlSpSgVatWjseff/75Nfc9ePAgsbGxALi6utKiRQtnxxGR/7d27VoeffRR1q1bB8CHH37I999/n2PepYiIGMPphQugT58+ji/xNWvWMGzYMNLS0nLsc+jQIXr16sX58+cB6Ny58xVrtojI7bPb7YwfP56nn36ao0eP4uXlxY8//sgHH3xAsWKGfAWIiMg/uNjtdrsRb7xs2TIGDBhARkYGABUqVKBp06ZUrlyZuLg4fv31V0fZqlGjBvPnz8/1TawTEhJo0qQJS5cupVq1akbEFykULly4QN++fZk2bRoA999/P9999x01a9Y0OZmISNFiWOGC/41uHT9+/Jr7BAYGMnbs2Js6raHCJXJj//3vf2nTpg2bNm0CoG3btkybNo3SpUubnExEpOgx9OZojz/+OL/88gvz5s1jyZIlHDhwgLNnz1KmTBnq1q3L888/T6tWrXRaQ8TJli9fTrt27Th58iTFihXj888/JywsLMf9TEVEJO8YOsJlFI1wiVyd3W5n9OjRhIWFkZWVhbe3N9HR0TRt2tTsaCIiRZqhI1wikndSU1Pp0aMH3377LQD16tVjwYIF+Pn5mZxMRER0Lk+kEDhw4ACNGzd2lK2QkBDWrl2rsiUikk+ocIkUcL/88gsBAQH88ccfFC9enK+++oqoqCg8PDzMjiYiIv9PhUukgLLb7Xz22We0aNGCpKQkKlWqxNKlSxkwYIAmx4uI5DOawyVSAJ07d46uXbs67tQQGBjI/PnzdRGJiEg+pREukQJm9+7dBAYGOspW9+7dWbVqlcqWiEg+psIlUoB8//331K9fn7///psSJUowceJEJk+eTMmSJc2OJiIi16HCJVIAZGdn8/777/Piiy9y7tw5qlSpwsqVK+nZs6fZ0UREJBc0h0sknztz5gwhISEsXLgQgMcee4yYmBh8fHxMTiYiIrmlES6RfGzHjh0EBAQ4ylZoaCjLli1T2RIRKWBUuETyqblz59KgQQP2799PyZIlmT59OmPHjsXNzc3saCIicpNUuETymczMTIYMGUL79u2x2WzcddddrF27lq5du5odTUREbpHmcInkIydPnqRDhw4sXboUgKCgIKKjo6lYsaLJyURE5HZohEskn9iyZQsBAQGOsjV48GAWLVqksiUiUghohEskH4iMjKRXr15cuHABDw8Ppk6dSvv27c2OJSIiTqLCJWKijIwM3nzzTcaOHQvAvffeS2xsLA8++KDJyURExJlUuERMcvToUdq1a8fq1asBaNGiBTNnzqR8+fImJxMREWfTHC4RE6xfvx5/f39H2Xr33Xf58ccfC2TZslqtBAUF4efnR1BQEFar1exIIiL5jgqXSB6bNGkSTz75JEeOHKFMmTLExsby8ccfU6xYwfvP0Wq1EhoaSmJiIt7e3iQmJhIaGqrSJSLyDwXvG16kgEpLS6NHjx706tWLjIwM6tSpw8aNG3nxxRfNjnbLwsPDcXNzw9PTExcXFzw9PXFzcyM8PNzsaCIi+YrmcInkgYSEBNq2bcuGDRsACA4OZvr06Xh5eZmc7PbExcXh7e2d4zkPDw/i4+PNCSQikk9phEvEYKtWrcLf358NGzbg4uLCp59+SkxMTIEvWwB+fn7YbLYcz9lsNqpXr25OIBGRfEqFS8QgdrudMWPG0KRJE44fP065cuVYuHAhb7/9doGcr3U1YWFhpKenk5qait1uJzU1lfT0dMLCwsyOJiKSrxSOb32RfMZms9G1a1cGDhxIZmYmDz74IJs2baJ58+ZmR3Mqi8VCREQEvr6+JCUl4evrS0REBBaLxexoIiL5iuZwiThZfHw8rVu3ZuvWrQB06NCBb775Bk9PT5OTGcNisahgiYjcgEa4RJxoyZIlBAQEsHXrVooVK8bIkSOZPXt2oS1bIiKSOypcIk5gt9sZMWIEzZo149SpU1SoUIHFixczaNAgXFxczI4nIiIm0ylFkduUkpJCt27dmDdvHgD+/v4sWLCAu+66y+RkIiKSX2iES+Q27Nu3j4YNGzrK1iuvvMLq1atVtkREJAcVLpFb9PPPPxMQEMDOnTtxdXUlIiKCqVOn4u7ubnY0ERHJZ1S4RG5SdnY2w4cP51//+hdnz57Fx8eH5cuX069fP83XEhGRq9IcLpGbcPbsWbp06cIPP/wAQKNGjYiJiaFKlSomJxMRkfxMI1wiubRr1y4CAwMdZat3796sWLFCZUtERG5IhUskFxYsWECDBg3Ys2cPbm5ufPPNN0yYMAE3Nzezo4mISAGgwiVyHVlZWbz99tu0adOGlJQUqlWrxpo1a3jttdfMjiYiIgWI5nCJXMPp06fp2LEjixYtAuCpp55i7ty5VKpUyeRkIiJS0GiES+Qqtm/fTkBAgKNsvf766yxevFhlS0REbokKl8g/fPvttzRq1Ii4uDjc3d2ZOXMm//nPfyhRooTZ0UREpIBS4RL5f5mZmbz55pt07NiR8+fP4+fnx7p16wgJCTE7moiIFHCawyUCnDhxgvbt27N8+XIAnnvuOb799lu8vb1NTiYiIoWBRrikyNu0aRP+/v6OsjV06FAWLlyosiUiIk5jSuH6448/eOCBB6hduzZjx441I4IIANOmTePxxx/n0KFDeHp6EhMTw+eff07x4sXNjiYiIoVInp9SvHDhAkOGDCEzMzOvDy3ikJ6ezuuvv86ECRMAqFmzJrGxsTzwwAMmJxMRkcIozwvXiBEjiIuLy+vDijgkJibStm1b1q1bB0CrVq2IioqiXLly5gYTEZFCK09PKa5Zs4bZs2fn5SFFcli3bh3+/v6OsvXBBx/w/fffq2yJiIih8myE6+zZswwbNgy73U6JEiXIyMjIq0OLYLfb+frrrxk4cCAZGRl4eXkxa9YsWrVqZXY0EREpAvJshOvDDz/k+PHjuLu76z50kqcuXLjAa6+9Rt++fcnIyOD+++9n06ZNKlsiIpJn8mSE68cff2ThwoUAhIWF4e7unheHFeG///0vbdq0YdOmTQC0bduWadOmUbp0aZOTiYhIUWL4CNfRo0cZPnw4AI899hgdO3Y0+pAiAKxYsQJ/f382bdpEsWLF+OKLL5g7d67KloiI5DlDR7jsdjvDhg0jOTmZMmXK8Nlnn+Hi4mLkIUWw2+2MHj2asLAwsrKy8Pb2Jjo6mqZNm5odTUREiihDR7giIyMdV4O9++67+Pj4GHk4MYjVaiUoKAg/Pz+CgoKwWq1mR7omm81GSEgIgwYNIisri3r16rFp0yaVLRERMZVhhWv//v2MHDkSgKZNm/Liiy8adSgxkNVqJTQ0lMTERLy9vUlMTCQ0NDRflq4DBw7QqFEjvv32WwA6derE2rVr8fPzMzmZiIgUdYacUszIyCAsLIy0tDS8vb0dc7huRXJyMsnJyTmeO3r06O1GlFwKDw/Hzc0NT09PAMffw8PDsVgsZkbLYdGiRbz88sskJSVRvHhxRo0aRf/+/XUKW0RE8gVDCte4cePYuXMnAMOHD7+tmwDPmDGDiIgIZ0WTmxQXF3fFvz8PDw/i4+PNCfQPdrudL774gnfeeQe73U6lSpWYO3cuTz31lNnRREREHJxeuLZt28akSZMAePHFF2977kzXrl0JDg7O8dzRo0cJCQm5rfeV3PHz8yMxMdExsgUX50lVr17dvFD/79y5c3Tt2pXY2FgAAgMDmT9/PtWqVTM5mYiISE5OLVw2m40hQ4aQlZWFj48P77777m2/p5eXF15eXk5IJ7ciLCyM0NBQ4OLIls1mIz09nbCwMFNz7d69m+DgYP766y8AunfvztixYylVqpSpuURERK7GqYVr4sSJHDx4EIAHH3yQuXPnXnW/HTt2OLa3bt3KlClTAPD19aVFixbOjCS3yWKxEBERQXh4OPHx8VSvXp2wsDBT52/98MMPdO7cmeTkZEqUKEFERAQ9e/Y0LY+IiMiNuNjtdruz3mzo0KGO0zu3IjAwkKioqBvul5CQQJMmTVi6dKlOHxUh2dnZfPjhh3z88ccAVKlShZiYGBo1amRyMhERkevLs5tXi9yOM2fOEBIS4rhF1OOPP868efO0tpuIiBQITh3hyq0FCxYwbNgwAEJDQ+nfv/9NvV4jXEXLjh07CA4OZt++fQD069ePUaNG4ebmZnIyERGR3DH8Xooit2Pu3Lk0bNiQffv2UbJkSaZPn05ERITKloiIFCgqXJIvZWZm8tZbb9G+fXtSU1O56667WLt2LV27djU7moiIyE3THC7Jd06ePMnLL7/MkiVLAAgKCiI6OpqKFSuanExEROTWaIRL8pUtW7YQEBDgKFuDBw9m0aJFKlsiIlKgaYRL8o2oqCh69uzJhQsX8PDwYMqUKXTo0MHsWCIiIrfNlMLVunVrWrdubcahJR/KyMjgzTffZOzYsQDcc889xMbG8tBDD5mcTERExDk0wiWmOnr0KO3atWP16tUANG/enFmzZt3WDc9FRETyG83hEtNs2LABf39/R9l65513+Omnn1S2RESk0NEIl5hi8uTJhIaGkp6eTpkyZZgxYwbBwcFmxxIRETGECpfkqbS0NPr378/kyZMBqF27NrGxsdx3330mJxMRETGOCpfkmYSEBNq2bcuGDRsAeOGFF4iMjMTLy8vkZCIiIsbSHC7JE6tWrcLf358NGzbg4uLCxx9/zIIFC1S2RESkSNAIlxjKbrczduxY3nzzTTIzMylXrhyzZ8/GYrGYHU1ERCTPqHCJYc6fP0+vXr2IiooC4MEHH2TBggXUqFHD5GQiIiJ5S4VLDBEfH0/r1q3ZunUrAO3bt2fKlCl4enqanExERCTvaQ6XON2SJUsICAhg69atFCtWjPDwcL799luVLRERKbI0wiVOY7fb+fe//83QoUPJzs7mjjvuYM6cOTRp0sTsaCIiIqZS4RKnSElJ4bXXXmPu3LkAPProoyxYsIC7777b5GQiIiLm0ylFuW379u2jUaNGjrLVtWtX1qxZo7IlIiLy/1S45Lb8/PPPBAQEsGPHDlxdXYmIiGDatGm4u7ubHU1ERCTfUOGSW5Kdnc3HH3/Mv/71L86ePUvlypVZvnw5/fr1w8XFxex4IiIi+YrmcMlNO3v2LF26dOGHH34AoGHDhsTExFC1alWTk4mIiORPGuGSm/LXX38RGBjoKFu9evVixYoVKlsiIiLXocIlubZgwQICAwPZs2cPbm5ufPPNN3z99deULFnS7GhSxFmtVoKCgvDz8yMoKAir1Wp2JBGRHFS45IaysrJ45513aNOmDSkpKVStWpXVq1fz2muvmR1NBKvVSmhoKImJiXh7e5OYmEhoaKhKl4jkKypccl2nT5+mVatWfPbZZwA8+eSTbN68mcDAQJOTiVwUHh6Om5sbnp6euLi44OnpiZubG+Hh4WZHExFxUOGSa9q+fTv169fnl19+AWDgwIEsWbKEypUrm5xM5H/i4uLw8PDI8ZyHhwfx8fHmBBIRuQoVLrmqb7/9lkaNGnHgwAHc3d2Jiopi9OjRlChRwuxoIjn4+flhs9lyPGez2ahevbo5gURErkKFS3LIzMzkzTffpGPHjpw/f57q1auzbt06OnXqZHY0kasKCwsjPT2d1NRU7HY7qamppKenExYWZnY0EREHFS5xOHHiBM899xyjRo0CoGnTpmzatIl69eqZG0zkOiwWCxEREfj6+pKUlISvry8RERFYLBazo4mIOGjhUwFg06ZNtG7dmkOHDgEwdOhQPvnkE4oXL25yMpEbs1gsKlgikq+pcAnTpk2jT58+pKWl4enpyfTp02nbtq3ZsURERAoNFa4iLD09nTfeeIPx48cDULNmTWJjY3nggQdMTiYiIlK4qHAVUYmJibz00kusXbsWgFatWhEVFUW5cuXMDSYiIlIIadJ8EbRu3Tr8/f0dZevDDz/k+++/V9kSERExiEa4ihC73c7XX3/NwIEDycjIwMvLi1mzZtGqVSuzo4mIiBRqKlxFxIULF+jbty/Tpk0D4P777+e7776jZs2aJicTEREp/FS4ioD//ve/tGnThk2bNgHQtm1bpk2bRunSpU1OJiIiUjRoDlcht3z5cvz9/dm0aRPFihXjiy++YO7cuSpbIiIieUgjXIWU3W5n9OjRhIWFkZWVhbe3N99++y3PPfec2dFERESKHBWuQshms9GjRw9mz54NQL169ViwYAF+fn4mJxMRESmadEqxkDlw4ACNGzd2lK2QkBDWrl2rsiUiImIiFa5CZNGiRQQEBLB9+3aKFy/O6NGjiYqKwsPDw+xoIiIiRZoKVyFgt9v5/PPPsVgsJCUlUbFiRZYsWcLAgQNxcXExO56IiEiRpzlcBdy5c+d45ZVXWLBgAQCBgYHMnz+fatWqmZxMRERELtEIVwG2e/duGjRo4Chbr732GitXrlTZEhERyWdUuAqoH374gcDAQP766y9KlCjB119/zeTJkylVqpTZ0UREROQfDD2luGXLFubPn8+WLVs4duwY6enplCtXjvvuu49nn32W4OBg3NzcjIxQ6GRnZ/PRRx8xfPhwAKpUqUJMTAyNGjUyOZmIiIhciyGFKzU1lffee4+ff/75ij87ceIEJ06cYNWqVUyaNImxY8dy//33GxGj0Dlz5gwhISEsXLgQgMcff5x58+bh4+NjcjIRERG5HqcXrszMTEJDQ1m3bh0ALi4uPPbYYzz00EO4ubkRFxfHkiVLSE1NJSEhgS5dujBnzhzuvfdeZ0cpVHbs2EFwcDD79u0DoF+/fowaNUojhCIiIgWA0wvXnDlzHGWrQoUKjB8/nocffjjHPqdPn2bAgAH8/vvvnDt3jrfffps5c+Y4O0qhMXfuXLp160ZqaiolS5Zk4sSJdO3a1exYIiIikktOnzQ/depUx/a///3vK8oWgLe3NxMmTKBixYoAbNu2ja1btzo7SoGXmZnJkCFDaN++Pampqdx5552sWbNGZUtERKSAcWrh2r17NwkJCQDUqVPnuhO5y5Qpw4svvuh4vH79emdGKfBOnjxJ8+bNCQ8PB+CZZ55h8+bNBAQEmJxMREREbpbTC9cldevWveH+d955p2P7xIkTzoxSoG3dupWAgACWLl0KwJtvvsmvv/7qGBEUERGRgsWpc7hatGhB/fr1OXbsGJ6enjfc//jx445t3e/voqioKHr27MmFCxdwd3dn6tSpdOjQwexYIiIichucWrhcXV3x9fXF19c3V/svXrzYsV2jRg1nRilwMjIyGDx4MGPGjAHgnnvuITY2loceesjkZCIiInK7TFtpfuHChY5TkCVKlODJJ580K4rpjh07xrPPPusoW82bN+f3339X2foHq9VKUFAQfn5+BAUFYbVazY4kIiKSK6YUrkOHDvHRRx85Hnfs2BFvb28zophu48aN+Pv7s2rVKgDeeecdfvrppyL7eVyL1WolNDSUxMREvL29SUxMJDQ0VKVLREQKBENv7XM1p06domfPnpw5cwa4OHE+NDT0mvsnJyeTnJyc47mjR48aGTHPfPPNN/Tr14/09HTKlCnDjBkzCA4ONjtWvhQeHo6bm5tjbuClv4eHh2OxWMyMJiIickN5WrhOnDhBt27dOHDgAHBxovyYMWPw8vK65mtmzJhBREREXkXME2lpaQwYMIBJkyYBULt2bWJjY7nvvvtMTpZ/xcXFXTHq5+HhQXx8vDmBREREbkKeFa5Dhw7RrVs3/vvf/wJQsmTJXN1HsWvXrleM+hw9epSQkBDDshrp8OHDtG3b1rHu2AsvvEBkZOR1S6eAn58fiYmJOa5+tdlsVK9e3bxQIiIiuZQnc7i2bt1Ku3btHGXL3d2dCRMm8Pjjj9/wtV5eXlSrVi3HXwX1Zs1r1qzB39+f9evX4+Liwscff8yCBQtUtnIhLCyM9PR0UlNTsdvtpKamkp6eTlhYmNnRREREbsjwwrVw4UK6du3K6dOnAShbtixTp07lscceM/rQ+Ybdbmfs2LE888wzHDt2jHLlyvHTTz/x7rvvUqyYaReKFigWi4WIiAh8fX1JSkrC19eXiIgIzd8SEZECwdBTilOmTCE8PBy73Q5AlSpVmDx5cpFac+v8+fP07t2byMhI4OIK/LGxsUXqM3AWi8WigiUiIgWSYYVrzJgxjBs3zvH4vvvuY+LEiVSuXNmoQ+Y7Bw8epHXr1mzZsgWA9u3bM2XKlFytwi8iIiKFhyHns6ZOnZqjbDVq1IiZM2cWqbK1dOlS/P392bJlC8WKFSM8PJxvv/1WZUtERKQIcnrh2rRpE//+978dj4OCgpg0aRKlS5d29qHyJbvdTnh4OM899xynTp3ijjvu4Ndff2Xw4MG4uLiYHU9ERERM4NRTiunp6QwZMoSsrCwA6tSpw+jRo3Fzc3PmYfKt1NRUunXrxty5cwF49NFHWbBgAXfffbfJyURERMRMTi1cCxYs4PDhw47H9erVY+bMmbl6bc2aNQv0/RT37dtHcHAwO3bsAC6uHzZhwgTc3d1NTiYiIiJmc2rhio2NzfE4Ojo6168NDg4usIVr4cKFhISEcObMGVxdXRk9ejR9+/bVKUQREREBnDyHa8+ePc58u3wvOzubjz/+mFatWnHmzBkqV67MsmXL6Nevn8qWiIiIODh1hGvr1q3OfLt8LTk5mS5duvD9998D0KBBA+bPn0/VqlVNTiYiIiL5jZY5vwV//fUXgYGBjrLVq1cvVq5cqbIlIiIiV6XCdZNiY2MJDAxk9+7duLm5MXnyZL7++mtKlixpdjQRERHJp1S4cikrK4t33nmH1q1bk5KSQtWqVVm1ahXdu3c3O5qIiIjkc4beS7GwOH36NCEhIfzyyy8APPnkk8ydO7dIrZwvIiIit04jXDewfft26tev7yhbAwcOZMmSJSpbIiIikmsqXNfx7bff0qhRIw4cOIC7uztRUVGMHj2aEiVKmB1NREREChCdUrwGq9VKx44dAahevTqxsbHUq1fP3FAiIiJSIGmE6xpcXFxwdXWlefPmbNq0SWVLREREbplGuK6hefPmnDlzBk9PT7OjiIiISAGnEa7rUNkSERERZ1DhEhERETGYCpeIiIiIwVS4RERERAymwiUiIiJiMBUuEREREYOpcImIiIgYTIVLRERExGAqXPmY1WolKCgIPz8/goKCsFqtZkcSERGRW6DClU9ZrVZCQ0NJTEzE29ubxMREQkNDVbpEREQKIBWufCo8PBw3Nzc8PT1xcXHB09MTNzc3wsPDzY4mIiIiN0mFK5+Ki4vDw8Mjx3MeHh7Ex8ebE0hERERumQpXPuXn54fNZsvxnM1mo3r16uYEEhERkVumwpVPhYWFkZ6eTmpqKna7ndTUVNLT0wkLCzM7moiIiNwkFa58ymKxEBERga+vL0lJSfj6+hIREYHFYjE7moiIiNwkV7MDyLVZLBYVLBERkUJAI1wiIiIiBlPhEhERETGYCpeIiIiIwVS4RERERAymwiUiIiJiMBUuEREREYOpcImIiIgYTIVLRERExGAqXCIiIiIGU+ESERERMZgKl4iIiIjBVLhEREREDKbCJSIiImIwFS4RERERg6lwiYiIiBhMhUtERETEYK5GH+DQoUNERUWxdu1aDh8+jIuLCz4+Pjz++ON06NCBe++91+gIIiIiIqYytHD98MMPvP/++5w/fz7H8wcOHODAgQN8++23DBkyhC5duhgZQ0RERMRUhhWuFStW8NZbb5GdnQ3Aww8/TOPGjQFYv349W7duJSMjg08//ZQyZcoQHBxsVBQRERERUxlSuFJTU3n33XcdZWvYsGG88sorOfaZO3cu77//Pna7neHDh/PUU0/h7e1tRBwRERERUxkyaX7u3LmcOHECgJYtW15RtgDatWtHt27dALDZbHzzzTdGRBERERExnSGFKzY21rHdo0ePa+7Xs2dP3NzcAPjpp5+w2+1GxBERERExldML14kTJ9i9ezcAFStW5L777rvmvuXKlePhhx8G4NixY/z555/OjiMiIiJiOqcXrl27djm2L5Wp63nooYcc29u3b3d2HBERERHTOb1wHTx40LFdrVq1G+5fpUqVq75WREREpLAw5JTiJT4+Pjfcv1KlSo7tU6dOOTvOLbNarQQFBeHn50dQUBBWq9XsSCIiIlJAOb1wnTt3zrFdqlSpG+5fsmRJx3ZKSoqz49wSq9VKaGgoiYmJeHt7k5iYSGhoqEqXiIiI3BKnr8OVnp7u2L68TF3L5aXs8tdekpycTHJyco7njh49ehsJbyw8PBw3Nzc8PT0BHH8PDw/HYrEYemwREREpfJxeuIoXL+7YdnFxueH+ly8FUazYlQNuM2bMICIiwjnhcikuLu6KRVg9PDyIj4/P0xwiIiJSODi9cHl4eDi209LSbrj/5ftcWpPrcl27dr3itj9Hjx4lJCTkNlJen5+fH4mJiY6RLbi4OGv16tUNO6aIiIgUXoYWrgsXLtxw/8sLV+nSpa/4cy8vL7y8vJwTLpfCwsIIDQ0FLv7z2Gw20tPTCQsLy9McIiIiUjg4fdJ8xYoVHdvHjh274f6X73P5a81ksViIiIjA19eXpKQkfH19iYiI0PwtERERuSVOH+GqWbOmY/vw4cM33P/IkSOO7fx0ys5isahgiYiIiFM4fYSrZs2ajsnyublVz+Wry99///3OjiMiIiJiOqcXrnLlylGvXj3g4ujV3r17r7lvUlISf/zxh+N1devWdXYcEREREdM5vXABOU7FjR079pr7TZo0iYyMDACef/75qy4LISIiIlLQGdJwXnrpJXx9fQFYtGgRo0ePzrHeFsCcOXOYNm0acHHx09dee82IKCIiIiKmc/qkebi4lMIHH3xA3759yc7OZsKECSxdupSgoCCKFy/Ob7/9xpYtWxz7v/3227m676KIiIhIQWRI4QJ45plnCA8P57333sNms7Fnzx727NmT8+CuroSFhdG+fXujYoiIiIiYzrDCBdCqVSv8/f2Jiopi1apVHD58mMzMTHx8fGjYsCGdO3emVq1aRkYQERERMZ2L/Z+TqwqAhIQEmjRpwtKlS6lWrZrZcURERESuS5cFioiIiBhMhUtERETEYCpcIiIiIgZT4RIRERExmAqXiIiIiMFUuEREREQMpsIlIiIiYjAVLhERERGDqXCJiIiIGEyFS0RERMRgKlwiIiIiBjP05tVGycrKAuDo0aMmJxERERG5sQJZuE6cOAFASEiIyUlEREREbszFbrfbzQ5xsy5cuMCOHTuoWLEixYsXN+w4R48eJSQkhFmzZuHj42PYcQoCfRY56fPISZ/H/+izyEmfx//os8ipqH0eBXKEq1SpUgQEBOTZ8Xx8fKhWrVqeHS8/02eRkz6PnPR5/I8+i5z0efyPPoucisrnoUnzIiIiIgZT4RIRERExmAqXiIiIiMFUuK7Dy8uL0NBQvLy8zI5iOn0WOenzyEmfx//os8hJn8f/6LPIqah9HgXyKkURERGRgkQjXCIiIiIGK5DLQhjp0KFDREVFsXbtWg4fPoyLiws+Pj48/vjjdOjQgXvvvdfsiHlmy5YtzJ8/ny1btnDs2DHS09MpV64c9913H88++yzBwcG4ubmZHdNUf/zxBy+//DKZmZmEhobSv39/syPlmezsbBYuXMjChQvZtWsXp06dws3NjbvvvpunnnqKkJAQKlSoYHbMPPH3338ze/ZsNmzYwPHjx8nMzKRChQo8+OCDvPDCCwQFBeHi4mJ2TEOkpaXRokULEhISiIyMpEGDBjd8TXp6OjExMVitVnbv3o3NZqNChQrUqVOH1q1b89xzz+VBcmPcyudx8uRJ5syZw9q1azlw4AApKSl4eHhQrVo1GjZsSMeOHQvksgm38llcTWZmJu3atWPnzp1UrVqVZcuWOTlp3lDhuswPP/zA+++/z/nz53M8f+DAAQ4cOMC3337LkCFD6NKli0kJ80ZqairvvfceP//88xV/duLECU6cOMGqVauYNGkSY8eO5f777zchpfkuXLjAkCFDyMzMNDtKnjt06BCvv/46O3bsyPF8eno6O3fuZOfOncyaNYvw8HCeeuopk1Iaz263M2rUKCZPnsw/Z2ccOXKEI0eOsGjRIho3bszIkSPx9vY2KalxPv30UxISEnK9/5EjR+jVqxd79uzJ8XxiYiKJiYksX76cJ598kpEjRxbIuT03+3nExsYyfPhwbDZbjufPnj3L2bNn2blzJzNmzODNN9+kW7duzo5rqJv9LK4lIiKCnTt3OiGRuVS4/t+KFSt46623yM7OBuDhhx+mcePGAKxfv56tW7eSkZHBp59+SpkyZQgODjYzrmEujdSsW7cOABcXFx577DEeeugh3NzciIuLY8mSJaSmppKQkECXLl2YM2dOkRr5u2TEiBHExcWZHSPPHT58mE6dOjnuZVq2bFmee+45qlatyokTJ/j11185ceIEZ8+eJTQ0lNmzZ/Pggw+anNoYo0ePZtKkSY7HjzzyCPXq1aNkyZLs3r2bFStWYLfbWbduHd27dyc6OrpQjQqPGzeOOXPm5Hr/lJQUXn31VeLj4wGoUKECzZo1o0KFChw4cIDFixdz4cIFVq1axcCBA5k8eTKurgXnf1M3+3nExsYydOhQx+O7776bJ598kooVK3L69GlWrVrFgQMHyMzM5MsvvyQjI4NevXoZEd3pbvazuJbt27fn+G+sQLOLPSUlxf7YY4/Za9WqZa9Vq5Z92rRpV+wzZ84ce+3ate21atWy16tXz37q1Km8D5oHZs6c6fgcGjdubN+2bdsV+5w6dcoeEhLi2K9du3YmJDXX6tWrHT8Pl/4aM2aM2bHyRLdu3Rz/zD179rSfO3cux5/bbDZ77969C/3Px759++z33XefvVatWva6devarVbrFfv88ccfOb5bJk+ebEJS50tPT7d//PHHOX7+a9WqZV+/fv11X/fRRx859u3UqZP97NmzOf78wIED9iZNmjj2mTVrlpH/GE5zK5/H8ePH7fXq1XPsGxERYc/MzMyxT3Z2tn3y5MmOfe677z77nj17jP7HuS23+rNxNTabzf7cc8/leJ9nnnnGgNR5Q5Pmgblz5zpuiN2yZUteeeWVK/Zp166dYzjXZrPxzTff5GXEPDN16lTH9r///W8efvjhK/bx9vZmwoQJVKxYEYBt27axdevWPMtotrNnzzJs2DDsdjslSpQwO06eWrJkCWvWrAGgfv36jBs3jtKlS+fYx93dnS+//JKyZcsCF38+Dhw4kOdZjfbDDz+QlZUFQLdu3WjevPkV+zz44IN8+OGHjsc//fRTXsUzzOHDh+ncuTNRUVE39bqTJ08yd+5cADw8PPjqq6+uOGXo5+fH+PHjKVbs4v+aJkyYkO9P2d/q5xEdHe04jfjCCy/Qr1+/K+4N7OLiQvfu3Xn55ZcByMrKuunj5KVb/Syu5YsvviA+Pr7QfM+qcHFxWPeSHj16XHO/nj17Ok4H/PTTT1fM2Sjodu/e7TjfXqdOHRo1anTNfcuUKcOLL77oeLx+/Xqj4+UbH374IcePH8fd3Z3XXnvN7Dh5av78+QC4urry/vvvX/N0j5eXF23atKF27do0aNCAU6dO5WXMPLFv3z7Hdv369a+53+OPP+7Y/u9//2toJiOlpKQwatQoLBaL4xesChUqULdu3Vy9/qeffiIjIwOAtm3bXnM+W61atWjatCkAx48fz7ffLbf7eSxfvtyx/eqrr153386dOzu28+PncbufxdWsXLmS6OhogEJzMVKRL1wnTpxg9+7dAFSsWJH77rvvmvuWK1fOMeJz7Ngx/vzzzzzJmFcufQ5Arv5DufPOOx3bl0YIC7sff/yRhQsXAhAWFsbdd99tcqK8c+7cOVavXg1cLBG1atW67v5vvfUWP/zwA5GRkdctJAXV5aMRx44du+Z+SUlJju3y5csbmslIMTExTJw4kbS0NAAaNGjAvHnzqFmzZq5ef2lkFODJJ5+87r6XX2ixZMmSW0hrvNv5PLKzsx2FvUSJEtSpU+e6++f379rb/dn4p6SkJN555x0A6tWrR/fu3Z2W1UwFZzaiQXbt2uXYvtrps3966KGH+P3334GLk/keeughw7LltRYtWlC/fn2OHTuGp6fnDfc/fvy4Y9vDw8PIaPnC0aNHGT58OACPPfYYHTt2zDE6Wtjt2LHDMUJxvdHPouLyC0UiIyNp2bIlpUqVumK/yyf8Xj7aVVBVrFiRgQMH0rZt25ta6uJmvmsv//M//vjj5kPmoVv5PIoVK8bKlSs5duwYSUlJN3xdQfmuvdWfjX/64IMPOHHiBO7u7nzxxRdXnGotqIp84Tp48KBjOzfrnFSpUuWqry0MXF1d8fX1xdfXN1f7L1682LFdo0YNo2LlC3a7nWHDhpGcnEyZMmX47LPPCu26Stdy+WX8l8rGwYMHmTNnDitXruTIkSO4urri5+dH8+bN6dix41ULSGHRrl07Jk+eTEZGBn///Tdt27bl9ddf5+GHH8bd3Z19+/YxefJkxwhN1apV6devn8mpb52Pjw/Dhg2jXbt2N/0//ZSUFMdp5bJly95wuYfLv4Py6/fs7XwecHG0M7cjnpeP8uXHK8Jv97O43HfffceiRYsAGDx4MH5+fs6ImC8U+cJ1+fCsj4/PDfevVKmSY7swzkvJrYULFzpOQZYoUeKGpwgKusjISMdSGe+++26uflYKm8uXwKhYsSIzZ85kxIgRjtMIl2zfvp3t27cza9Ysvv7661s+rZDf+fr6Eh4ezuDBg8nMzGTv3r1XLVQuLi4899xzvPPOOzm+Pwqaq10UkFuXj9BUrlz5hvt7enri6elJamoqKSkppKWlUbJkyVs+vhFu5/O4GcnJyTku0ro0vy0/cdZnceTIET755BPg4ih6SEiIU943vyjyc7jOnTvn2M7Nb+OX/0efkpJiSKb87tChQ3z00UeOxx07diyUCzpesn//fkaOHAlc/LK7/GKBouTy/1a+//57Pv74Y9LS0qhVqxbdunXj9ddf5/nnn3f8hpuQkECnTp04dOiQWZENZ7FYmD9//nVX0K5UqRKNGjUqMqvuX83l35Xu7u65es3l38dF9bvWbrfz7rvvOgYGKlWqRNu2bU1OZQy73c7QoUM5d+4cpUuXLpRnEYr8CFd6erpjOze/QV3+JXD5a4uKU6dO0bNnT86cOQNcnMwZGhpqbigDZWRkEBYWRlpaGt7e3o45XEVRamqqY3vq1KkUK1aMYcOG0blz5xxfjMeOHaNPnz7s3LmTM2fOMGTIEL799lszIhvu2LFjTJ48mS1btgDQsGFDHn30UVxdXdm7dy/Lly/n2LFjfPjhh3z//feMHz++UP9yci03+z0L+q6Fi4srXzq9BhfnNuW2sBY006dPZ8OGDcDFswiXT98pLIp84bp8Ml5u2vTlS0FcWiumqDhx4gTdunVzrKnk4eHBmDFjCuTtN3Jr3LhxjltKDB8+vEj+z/KSCxcu5Hjcr1+/q97mqnLlykycOJFWrVpx5swZtmzZwvr162nYsGFeRc0T8fHxhISEcPLkScqVK8eYMWOuGOk6cuQIAwYM4M8//2Tr1q0MGDCAqKioQveb+43cyj9vUf6uhYtl6/J1EXv16sWzzz5rYiLj7N27l//85z8ANGnSpNDeyaXo/RT/w+UT/P45F+VqLt+nMN2i40YOHTpEx44dHROnS5YsWejvo7ht2zbHFWYvvvhivpw7kZcu/3kvV67cdS/VrlixIu3bt3c8Xrp0qaHZ8prdbmfQoEGcPHkSgLFjx171tGKVKlWYMmWK47f133//3bGsSFFy+VXPuR2tuvy7trAsfJkbWVlZvPfee0yZMsXxXNu2bXnjjTdMTGWcjIwMhgwZQlpaGuXLl+fjjz82O5JhVLguK1z//A3+ai7/EvjnCtuF1datW2nXrp1j0UZ3d3cmTJhQKC5xvxabzcaQIUPIysrCx8eHd9991+xIprv8f5oBAQE3nPN4+dIRf/31l2G5zLBhwwbHyOcTTzxBYGDgNfctW7Ysffr0cTz+/vvvDc+X31z+s3P+/Plcveby7+Oi8l2bkpJC7969HSvyA7Rv355PPvmk0I6Kjh071rFkyEcffcQdd9xhciLjFPlTipduTwPXX7zwavtc/trCauHChQwdOtRRNMuWLcvXX3/No48+anIyY02cONFxOfqDDz6Y4wvwcjt27HBsb9261fFbqa+vLy1atDA+aB4qV66cYzs3V9tdfjXapTl/hcXGjRsd25ducn89TzzxhGP78vWoiooKFSrg4uKC3W7PccXitaSmpjrmDJYrV65InE1ITEykV69eORag7tGjB4MHDzYxlbH279/vuALTx8eHhISEHCN7V5OSkpJjn/bt2xeYQl7kC9fll6wfPnz4hvsfOXLEsV29enUjIuUbU6ZMITw83DGXokqVKkyePLnQr7kFOYv14sWLc6w5di1r165l7dq1AAQGBha6wnX5v/fk5OQb7n/pPoNArhbSLUguX04mN3MYL79C8fKrPYsKd3d3qlatSkJCAklJSdhstuuu11SUvmfh4l0+unfv7iijxYoV4+23385xS5/C6OTJk47viaNHjzJixIgbvubs2bM59mvWrFmBKVxF/pRizZo1HUO1ublVz/bt2x3bhXn+0pgxYxgxYoSjbN13331ER0cXibIlV1e7dm3H9uWLoF7LpftyQu7WuCtILj+dmpsRm8tH+C7d1LuoufxWUDdaPX7btm2O7cL8PQuwc+dOOnfu7Pg5KlWqFF999VWhL1tFUZEf4SpXrhz16tVj69atHDlyhL17915zocakpCTHF0W5cuVu68ac+dnUqVMZN26c43GjRo2IiIgoML9FOMMXX3zBF198ccP9FixYwLBhwwAIDQ0tNDdZvZqHH36Y8uXLk5SUxJ49e9i3b991C/iqVasc24XtXoqXj7qsXr2avn37Xnf/3377zbF9o/vmFVZPP/00y5YtAy7emPh6V61e/rPz2GOPGZ7NLHFxcXTr1o2zZ88CF8v4hAkT8Pf3NzlZ3mjQoEGOU6jXc+kXvqpVqzp+jgqaIj/CBRcXL7xk7Nix19xv0qRJjnvJPf/884XyUuVNmzbx73//2/E4KCiISZMmFamyJVdXokQJWrVq5Xj8+eefX3PfgwcPOu4z6erqWuhOrz799NOOJWW2bNnCypUrr7nv+fPn+frrrx2PmzVrZni+/Khp06aOqw3nzJlzzZHBv//+23ErG29v70J7F4u0tDQGDBjgGP309vYmKiqqyJStoqjwNYZb8NJLLznu3bVo0SJGjx6dYw0YuPgFMW3aNODikO9rr72W5zmNlp6e7rgyDy7+Jj569OgiMWFVcqdPnz6OyfNr1qxh2LBhVyyncujQIXr16uW4Gq1z586Fbv2yqlWr0rp1a8fjwYMHX7V0nT59mn79+rF//34A7rnnHl544YU8y5mfeHt7O27VkpqaSu/eva8oXXFxcfTr14/s7GwAevbsWWi/fyIiIhyn5l1dXRk7dmyO0/ZS+BT5U4pwcWmIDz74gL59+5Kdnc2ECRNYunQpQUFBFC9enN9++82xkjTA22+/XejmpMDF02OXXzhQr149Zs6cmavX1qxZs9D+Jir/c8cdd/D5558zYMAAMjIyWLBgAatWraJp06ZUrlyZuLg4fv31V0fZqlGjBq+//rq5oQ0ybNgwduzYwV9//UVycjI9e/bkoYceon79+pQpU4b4+HiWLFniuC1NmTJlGDt2LK6uRfdrt3///ixfvpyDBw+yc+dOWrZsicViwdfXl7i4OBYtWuRYDqJ+/fqFdh5TUlJSju/W2rVrO+5BmhuF8Rf+oqDo/pf/D8888wzh4eG899572Gw29uzZc8XEYFdXV8LCwnIs6FiYXDoFdEl0dHSuXxscHKzCVUQEBQXx9ddfM2zYMI4fP87JkyeveuuewMBAxo4dm6t7lBZEnp6eREZGMnToUMfCrn/88cdVJ4Tfc889jB07tshfdFK6dGkiIyPp2bMnu3fvJjk5mTlz5lyxX8OGDYmIiCi05XTRokXYbDbH4507dzrWdcsNFa6CqXD+NN+iVq1a4e/vT1RUFKtWreLw4cNkZmbi4+NDw4YN6dy5c44rbQqb3Fx5JgLw+OOP88svvzBv3jyWLFnCgQMHOHv2LGXKlKFu3bo8//zztGrVqlDOc7ycl5cX48ePZ9OmTcTGxrJ582aOHTtGRkYG3t7ePPDAAzRr1oxWrVoV2vJws3x8fFiwYAHz589n4cKF7Nmzh+TkZMqUKcMDDzxAcHAwLVu2LLQLfYK+a4sqF/s/JyuJiIiIiFMV7l8/RURERPIBFS4RERERg6lwiYiIiBhMhUtERETEYCpcIiIiIgZT4RIREREx2P8BZd9hF8C+kGsAAAAASUVORK5CYII=;" vertex="1" parent="1">
          <mxGeometry x="150" y="-40" width="520" height="503" as="geometry" />
        </mxCell>
        <mxCell id="h9kGt1D0OUggEjxRW-uX-2" value="&lt;font style=&quot;font-size: 26px;&quot;&gt;Predicted&lt;br&gt;Rank&lt;/font&gt;" style="text;html=1;align=center;verticalAlign=middle;resizable=0;points=[];autosize=1;strokeColor=none;fillColor=none;" vertex="1" parent="1">
          <mxGeometry x="650" y="420" width="130" height="80" as="geometry" />
        </mxCell>
        <mxCell id="h9kGt1D0OUggEjxRW-uX-3" value="&lt;font style=&quot;font-size: 26px;&quot;&gt;Actual&lt;br&gt;Rank&lt;/font&gt;" style="text;html=1;align=center;verticalAlign=middle;resizable=0;points=[];autosize=1;strokeColor=none;fillColor=none;" vertex="1" parent="1">
          <mxGeometry x="100" y="-90" width="100" height="80" as="geometry" />
        </mxCell>
      </root>
    </mxGraphModel>
  </diagram>
</mxfile>
